<?xml version="1.0" standalone="no"?>
<!DOCTYPE svg PUBLIC "-//W3C//DTD SVG 1.1//EN" "http://www.w3.org/Graphics/SVG/1.1/DTD/svg11.dtd" >
<svg xmlns="http://www.w3.org/2000/svg">
<metadata>
This is a custom SVG webfont generated by Font Squirrel.
Copyright   : Copyright c 1991 Adobe Systems Incorporated  All Rights ReservedFrutiger is a trademark of LinotypeHell AG andor its subsidiaries
</metadata>
<defs>
<font id="FrutigerRegular" horiz-adv-x="983" >
<font-face units-per-em="2048" ascent="1638" descent="-410" />
<missing-glyph horiz-adv-x="491" />
<glyph unicode=" "  horiz-adv-x="491" />
<glyph unicode="&#x09;" horiz-adv-x="491" />
<glyph unicode="&#xa0;" horiz-adv-x="491" />
<glyph unicode="!" horiz-adv-x="720" d="M285 0v184h151v-184h-151zM285 1430h151l-20 -1078h-111z" />
<glyph unicode="&#x22;" d="M287 1081v455h119v-455h-119zM578 1081v455h118v-455h-118z" />
<glyph unicode="#" d="M49 455v102h193l39 315h-181v103h193l53 455h103l-54 -455h256l54 455h102l-53 -455h180v-103h-193l-39 -315h181v-102h-193l-53 -455h-102l53 455h-256l-53 -455h-103l53 455h-180zM344 557h256l39 315h-256z" />
<glyph unicode="$" d="M160 1098q0 166 89 243.5t204 94.5v168h73v-160q82 0 124 -10.5t108 -34.5l-6 -144q-55 33 -105.5 51.5t-120.5 18.5v-522q180 -131 238.5 -210t58.5 -212q0 -154 -80.5 -257.5t-216.5 -131.5v-182h-73v176h-13q-78 0 -145.5 15t-124.5 52l8 148q61 -55 133 -76t119 -21 h23v582l-35 25q-150 102 -204 184t-54 203zM295 1116q0 -86 38 -140t120 -116v457q-70 -20 -114 -67.5t-44 -133.5zM526 119q70 23 116 90t46 153q0 90 -38 149.5t-124 123.5v-516z" />
<glyph unicode="%" horiz-adv-x="1669" d="M147 1057q0 170 63.5 278.5t209 108.5t209 -108.5t63.5 -278.5t-63.5 -278.5t-209 -108.5t-209 108.5t-63.5 278.5zM266 1057q0 -109 26.5 -193t127.5 -84q98 0 125.5 86t27.5 191q0 109 -26.5 192.5t-126.5 83.5q-98 0 -126 -86t-28 -190zM457 -68l641 1565h110 l-641 -1565h-110zM977 373q0 170 63.5 278.5t209 108.5t209 -108.5t63.5 -278.5t-63.5 -278.5t-209 -108.5t-209 108.5t-63.5 278.5zM1096 373q0 -109 26.5 -193t126.5 -84q98 0 126 86t28 191q0 109 -26.5 192.5t-127.5 83.5q-98 0 -125.5 -86t-27.5 -190z" />
<glyph unicode="&#x26;" horiz-adv-x="1175" d="M115 397q0 141 73.5 242.5t208.5 173.5q-74 90 -113.5 166t-39.5 170q0 100 78.5 197.5t240.5 97.5q129 0 206 -83t77 -190q0 -104 -53.5 -194t-225.5 -201l295 -411q39 78 67.5 198.5t28.5 243.5h119q-12 -145 -39.5 -278.5t-103.5 -266.5l209 -262h-162l-119 172 q-37 -78 -140.5 -132t-219.5 -54q-205 0 -296 115.5t-91 295.5zM242 375q0 -84 59 -177.5t209 -93.5q84 0 161 43t126 115l-334 467q-121 -86 -171 -160.5t-50 -193.5zM371 1141q0 -53 19.5 -100.5t109.5 -176.5q90 55 154.5 123t64.5 168q0 61 -36 115.5t-128 54.5 q-90 0 -137 -57t-47 -127z" />
<glyph unicode="'" horiz-adv-x="491" d="M186 1081v455h119v-455h-119z" />
<glyph unicode="(" horiz-adv-x="530" d="M94 630.5q0 231.5 75 462t206 455.5l98 -12q-84 -180 -135 -315.5t-84 -284t-33 -305.5q0 -219 66.5 -433t185.5 -472l-98 -13q-131 225 -206 455.5t-75 462z" />
<glyph unicode=")" horiz-adv-x="530" d="M57 -274q84 180 135.5 315t84 283.5t32.5 306.5q0 219 -66.5 433t-185.5 472l99 12q131 -225 205.5 -455.5t74.5 -462t-74.5 -461.5t-205.5 -456z" />
<glyph unicode="*" d="M172 1260l41 118l231 -108l-16 266h127l-16 -266l231 108l41 -118l-242 -80l150 -238l-107 -59l-120 235l-121 -235l-107 59l150 238z" />
<glyph unicode="+" horiz-adv-x="1228" d="M96 467v102h467v467h103v-467h467v-102h-467v-467h-103v467h-467z" />
<glyph unicode="," horiz-adv-x="491" d="M76 -270l98 454h152l-131 -454h-119z" />
<glyph unicode="-" horiz-adv-x="606" d="M94 512v119h418v-119h-418z" />
<glyph unicode="." horiz-adv-x="491" d="M166 0v201h160v-201h-160z" />
<glyph unicode="/" horiz-adv-x="530" d="M23 -14l383 1458h102l-383 -1458h-102z" />
<glyph unicode="0" d="M94 715q0 272 84 500.5t313.5 228.5t313.5 -226.5t84 -502.5q0 -272 -84 -500.5t-313.5 -228.5t-313.5 226.5t-84 502.5zM221 714.5q0 -225.5 52.5 -418t218 -192.5t218 192.5t52.5 418t-52.5 418t-218 192.5t-218 -192.5t-52.5 -418z" />
<glyph unicode="1" d="M246 1167l254 263h127v-1430h-127v1286l-185 -213z" />
<glyph unicode="2" d="M137 0v125l109 135q143 176 223 284.5t151.5 253t71.5 271.5q0 117 -54 186.5t-169 69.5q-68 0 -142.5 -32.5t-129.5 -80.5l-19 142q55 37 133 63.5t168 26.5q174 0 261 -111.5t87 -263.5q0 -176 -106.5 -357.5t-255.5 -365.5l-184 -227h565v-119h-709z" />
<glyph unicode="3" d="M100 43l11 139q37 -25 117.5 -51.5t148.5 -26.5q135 0 225 75t90 233q0 131 -89 200.5t-226 69.5h-119v119q244 0 334 71.5t90 196.5q0 53 -38 154.5t-247 101.5q-57 0 -112.5 -17.5t-122.5 -66.5l-10 135q37 27 122.5 47.5t139.5 20.5q209 0 306 -113.5t97 -249.5 q0 -125 -67.5 -205.5t-188.5 -115.5q100 -20 183 -116.5t83 -248.5q0 -203 -119.5 -306t-342.5 -103q-100 0 -155 14t-110 43z" />
<glyph unicode="4" d="M63 342v129l527 959h168v-969h162v-119h-162v-342h-127v342h-568zM174 461h457v842z" />
<glyph unicode="5" d="M178 41l6 137q63 -43 130 -58.5t116 -15.5q162 0 236.5 102.5t74.5 248.5q0 141 -73.5 228t-235.5 87q-84 0 -117.5 -8t-113.5 -41l-8 -2v711h608v-119h-490v-451q35 14 73 21.5t85 7.5q221 0 314.5 -121t93.5 -313q0 -213 -115 -341t-338 -128q-88 0 -133 12t-113 43z " />
<glyph unicode="6" d="M94 618q0 168 26.5 343.5t137.5 329t336 153.5q57 0 115.5 -10.5t119.5 -28.5l-10 -143q-27 12 -77 37.5t-136 25.5q-188 0 -290.5 -178t-102.5 -442q43 92 123 146t178 54q197 0 286 -148.5t89 -320.5t-96.5 -311t-300.5 -139q-176 0 -287 151t-111 481zM246 453 q0 -188 75.5 -268.5t170.5 -80.5q104 0 183 83t79 270q0 113 -59.5 221t-202.5 108q-109 0 -177.5 -93t-68.5 -240z" />
<glyph unicode="7" d="M133 1311v119h717v-125l-449 -1305h-143l465 1311h-590z" />
<glyph unicode="8" d="M90 373q0 129 77 228t195 144q-111 59 -174 152.5t-63 212.5q0 166 115.5 250t253.5 84q190 0 276 -102.5t86 -225.5q0 -131 -67.5 -212t-176.5 -154q123 -66 202 -146t79 -225q0 -152 -97.5 -272.5t-306.5 -120.5q-184 0 -291.5 111.5t-107.5 275.5zM225 369 q0 -106 73 -185.5t200 -79.5q90 0 175 63.5t85 209.5q0 115 -79 185.5t-206 129.5l-41 -24q-104 -57 -155.5 -129t-51.5 -170zM260 1096q0 -94 65.5 -173t190.5 -124q102 74 153.5 154.5t51.5 156.5q0 94 -68.5 154.5t-163.5 60.5q-92 0 -160.5 -64.5t-68.5 -164.5z" />
<glyph unicode="9" d="M94 993q0 172 96.5 311.5t301.5 139.5q176 0 286.5 -151.5t110.5 -481.5q0 -168 -26.5 -343t-137.5 -328.5t-336 -153.5q-57 0 -115.5 10t-119.5 29l10 143q25 -14 76 -39t137 -25q188 0 290.5 178.5t102.5 442.5q-43 -92 -123 -146.5t-178 -54.5q-197 0 -286 148.5 t-89 320.5zM229 973q0 -113 59.5 -221.5t203.5 -108.5q109 0 177 93t68 241q0 188 -75.5 268t-169.5 80q-104 0 -183.5 -83t-79.5 -269z" />
<glyph unicode=":" horiz-adv-x="491" d="M166 0v201h160v-201h-160zM166 844v200h160v-200h-160z" />
<glyph unicode=";" horiz-adv-x="491" d="M76 -270l98 454h152l-131 -454h-119zM166 844v200h160v-200h-160z" />
<glyph unicode="&#x3c;" horiz-adv-x="1228" d="M96 463v110l1037 478v-111l-910 -422l910 -422v-110z" />
<glyph unicode="=" horiz-adv-x="1228" d="M96 268v103h1037v-103h-1037zM96 666v102h1037v-102h-1037z" />
<glyph unicode="&#x3e;" horiz-adv-x="1228" d="M96 -14v110l910 422l-910 422v111l1037 -478v-110z" />
<glyph unicode="?" horiz-adv-x="909" d="M182 1397q61 25 111.5 36t109.5 11q188 0 277.5 -98.5t89.5 -245.5q0 -98 -28.5 -170t-124 -208t-117 -199.5t-21.5 -172.5h-119q0 190 46 273l121 178q60 88 84 154.5t24 129.5q0 106 -60.5 173t-168.5 67q-43 0 -96.5 -13.5t-116.5 -54.5zM336 0v184h151v-184h-151z " />
<glyph unicode="@" horiz-adv-x="1638" d="M90 715q0 303 213 516t516 213q311 0 520 -168t209 -440q0 -193 -136 -362t-292 -169q-76 0 -127 35t-51 94q-53 -53 -118.5 -91t-145.5 -38q-123 0 -191.5 79t-68.5 200q0 209 136 383t337 174q76 0 130 -43t81 -117l51 127h102l-194 -559q-4 -16 -14.5 -44t-10.5 -40 q0 -31 17.5 -48.5t70.5 -17.5q123 0 222.5 141.5t99.5 301.5q0 236 -182.5 372t-444.5 136q-260 0 -443 -185.5t-183 -449.5q0 -266 182 -450.5t444 -184.5q186 0 340 63.5t244 198.5h110q-100 -174 -286.5 -265t-407.5 -91q-303 0 -516 213t-213 516zM520 594 q0 -94 39 -144.5t129 -50.5q141 0 246.5 159t105.5 304q0 184 -157 185q-152 0 -257.5 -150.5t-105.5 -302.5z" />
<glyph unicode="A" horiz-adv-x="1138" d="M27 0l475 1430h135l475 -1430h-135l-125 393h-569l-129 -393h-127zM319 512h494l-242 782z" />
<glyph unicode="B" horiz-adv-x="1024" d="M164 0v1430h334q176 0 271 -101.5t95 -245.5q0 -141 -65.5 -216.5t-159.5 -114.5q111 -35 183.5 -121t72.5 -232q0 -201 -124 -300t-361 -99h-246zM291 801h174q115 0 189.5 70.5t74.5 195.5q0 109 -63.5 176.5t-196.5 67.5h-178v-510zM291 119h180q139 0 214 74.5 t75 199.5q0 129 -72 209t-203 80h-194v-563z" />
<glyph unicode="C" horiz-adv-x="1099" d="M117 723q0 305 152.5 513t461.5 208q63 0 126 -11.5t114 -35.5l-6 -144q-29 25 -101.5 48.5t-142.5 23.5q-84 0 -188.5 -42t-192.5 -176t-88 -388q0 -330 149.5 -472.5t317.5 -142.5q78 0 120 13.5t122 50.5l6 -137q-57 -20 -125 -32.5t-119 -12.5q-299 0 -452.5 213 t-153.5 524z" />
<glyph unicode="D" horiz-adv-x="1138" d="M164 0v1430h186q698 0 699 -695q0 -332 -165 -533.5t-499 -201.5h-221zM291 119h131q233 0 362 161.5t129 434.5q0 248 -98 422t-416 174h-108v-1192z" />
<glyph unicode="E" horiz-adv-x="909" d="M164 0v1430h606v-119h-479v-508h457v-119h-457v-565h502v-119h-629z" />
<glyph unicode="F" horiz-adv-x="833" d="M164 0v1430h584v-119h-457v-508h434v-119h-434v-684h-127z" />
<glyph unicode="G" horiz-adv-x="1214" d="M104 729q0 293 166 504t455 211q82 0 169 -22.5t130 -47.5l-6 -139q-45 35 -132 62.5t-169 27.5q-184 0 -330.5 -148.5t-146.5 -459.5q0 -236 119.5 -424.5t375.5 -188.5q57 0 103.5 9.5t93.5 33.5v502h-256v119h383v-705q-74 -39 -157 -58t-173 -19q-334 0 -479.5 235.5 t-145.5 507.5z" />
<glyph unicode="H" horiz-adv-x="1138" d="M164 0v1430h127v-627h557v627h127v-1430h-127v684h-557v-684h-127z" />
<glyph unicode="I" horiz-adv-x="454" d="M164 0v1430h127v-1430h-127z" />
<glyph unicode="J" horiz-adv-x="606" d="M43 0v135q37 -14 51.5 -18t44.5 -4q115 0 145.5 74.5t30.5 209.5v1033h127v-1037q0 -190 -60 -298.5t-239 -108.5q-29 0 -58.5 6t-41.5 8z" />
<glyph unicode="K" horiz-adv-x="1024" d="M164 0v1430h127v-627l520 627h156l-572 -680l619 -750h-168l-551 700l-4 -700h-127z" />
<glyph unicode="L" horiz-adv-x="796" d="M164 0v1430h127v-1311h465v-119h-592z" />
<glyph unicode="M" horiz-adv-x="1515" d="M164 0v1430h194l398 -1242l401 1242h195v-1430h-119v1311l-426 -1311h-96l-424 1311l-4 -1311h-119z" />
<glyph unicode="N" horiz-adv-x="1214" d="M164 0v1430h164l600 -1270l4 1270h119v-1430h-164l-600 1262l-4 -1262h-119z" />
<glyph unicode="O" horiz-adv-x="1216" d="M104 715q0 137 27 293.5t138.5 296t338.5 139.5q252 0 378 -192.5t126 -536.5q0 -137 -26.5 -294t-138 -296t-339.5 -139q-252 0 -378 192.5t-126 536.5zM240 715q0 -293 91 -452t277 -159q184 0 276.5 159t92.5 452t-91 451.5t-278 158.5q-184 0 -276 -158.5t-92 -451.5 z" />
<glyph unicode="P" horiz-adv-x="948" d="M164 0v1430h268q211 0 323.5 -96.5t112.5 -307.5q0 -213 -117.5 -308t-281.5 -95h-178v-623h-127zM291 741h129q152 0 232.5 63.5t80.5 221.5q0 184 -95 234.5t-237 50.5h-110v-570z" />
<glyph unicode="Q" horiz-adv-x="1216" d="M104 715q0 137 27 293.5t138.5 296t338.5 139.5q252 0 378 -192.5t126 -536.5q0 -268 -74.5 -443.5t-228.5 -242.5l266 -291h-162l-229 256q-4 0 -28.5 -4t-47.5 -4q-252 0 -378 192.5t-126 536.5zM240 715q0 -293 91 -452t277 -159q184 0 276.5 159t92.5 452t-91 451.5 t-278 158.5q-184 0 -276 -158.5t-92 -451.5z" />
<glyph unicode="R" horiz-adv-x="1024" d="M164 0v1430h330q180 0 278 -100.5t98 -264.5t-82.5 -244t-197.5 -102q49 -14 86 -40t59 -87l215 -592h-135l-174 489q-35 98 -74 137.5t-114 39.5h-162v-666h-127zM291 784h174q127 0 198.5 78t71.5 197q0 154 -86 203t-192 49h-166v-527z" />
<glyph unicode="S" horiz-adv-x="872" d="M104 1098q0 160 99.5 253t273.5 93q78 0 119 -10.5t106 -34.5l-6 -144q-55 33 -105 51.5t-122 18.5q-84 0 -156.5 -48t-72.5 -161q0 -96 43 -150.5t200.5 -171t221 -195.5t63.5 -218q0 -176 -107.5 -285.5t-275.5 -109.5q-78 0 -145.5 15t-124.5 52l8 148q61 -55 133 -76 t119 -21q115 0 186.5 72t71.5 186.5t-58.5 180t-210 168t-206 184.5t-54.5 203z" />
<glyph unicode="T" horiz-adv-x="872" d="M41 1311v119h790v-119h-331v-1311h-127v1311h-332z" />
<glyph unicode="U" horiz-adv-x="1175" d="M164 526v904h127v-902q0 -197 60.5 -310.5t236.5 -113.5q178 0 237.5 119t59.5 305v902h127v-904q0 -244 -96.5 -392t-327.5 -148q-233 0 -328.5 142t-95.5 398z" />
<glyph unicode="V" horiz-adv-x="1062" d="M33 1430h135l350 -1254l385 1254h127l-450 -1430h-119z" />
<glyph unicode="W" horiz-adv-x="1593" d="M25 1430h135l256 -1278l301 1278h174l268 -1278l283 1278h127l-330 -1430h-160l-280 1286l-307 -1286h-150z" />
<glyph unicode="X" horiz-adv-x="1062" d="M20 0l449 758l-393 672h151l326 -570l332 570h135l-399 -672l421 -758h-151l-348 649l-371 -649h-152z" />
<glyph unicode="Y" horiz-adv-x="1024" d="M88 1430h135l291 -693l287 693h135l-361 -809v-621h-126v621z" />
<glyph unicode="Z" horiz-adv-x="909" d="M74 0v127l612 1184h-592v119h727v-123l-614 -1188h629v-119h-762z" />
<glyph unicode="[" horiz-adv-x="530" d="M160 -287v1835h260v-94h-150v-1647h150v-94h-260z" />
<glyph unicode="\" horiz-adv-x="530" d="M23 1444h102l383 -1458h-102z" />
<glyph unicode="]" horiz-adv-x="530" d="M111 -193h149v1647h-149v94h260v-1835h-260v94z" />
<glyph unicode="^" horiz-adv-x="1228" d="M90 502l473 928h103l473 -928h-119l-406 801l-405 -801h-119z" />
<glyph unicode="_" horiz-adv-x="1024" d="M0 -154h1024v-102h-1024v102z" />
<glyph unicode="`" horiz-adv-x="380" d="M-14 1491h143l156 -291h-103z" />
<glyph unicode="a" horiz-adv-x="909" d="M84 289q0 217 152.5 278.5t351.5 61.5h76q0 145 -37 232t-181 87q-90 0 -153.5 -34.5t-108.5 -73.5l-18 127q88 47 149.5 69.5t137.5 22.5q162 0 241.5 -88t79.5 -258v-480q0 -39 6 -116.5t6 -116.5h-106l-8 150q-57 -88 -126 -126t-171 -38q-123 0 -207 88t-84 215z M211 289q0 -74 51 -133.5t141 -59.5q86 0 173.5 61.5t87.5 245.5v123q-238 0 -345.5 -38.5t-107.5 -198.5z" />
<glyph unicode="b" horiz-adv-x="948" d="M123 0q0 43 4 165t4 181v1190h119v-627q51 76 113.5 113t154.5 37q176 0 261 -157t85 -341q0 -211 -65.5 -393t-286.5 -182q-92 0 -152.5 37.5t-121.5 119.5l-5 -143h-110zM242 510q0 -186 57 -300t201 -114q119 0 178 110.5t59 315.5q0 199 -55 312.5t-184 113.5 q-166 0 -211 -130t-45 -308z" />
<glyph unicode="c" horiz-adv-x="757" d="M84 518q0 248 110.5 394.5t321.5 146.5q59 0 104.5 -9.5t90.5 -27.5l-6 -135q-33 27 -85.5 40t-103.5 13q-133 0 -219 -95t-86 -292q0 -252 102.5 -350.5t221.5 -98.5q43 0 97 13.5t79 42.5l10 -135q-88 -39 -203 -39q-180 0 -307 138t-127 394z" />
<glyph unicode="d" horiz-adv-x="948" d="M84 561q0 186 84 342t262 156q96 0 159.5 -38t104.5 -112l4 627h119v-1190q0 -86 2 -169t6 -177h-110v143q-68 -80 -128.5 -118.5t-150.5 -38.5q-170 0 -261 145t-91 430zM211 522q0 -207 59.5 -316.5t178.5 -109.5q139 0 198.5 116t59.5 298q0 180 -44.5 309t-211.5 129 q-127 0 -183.5 -114.5t-56.5 -311.5z" />
<glyph unicode="e" horiz-adv-x="872" d="M84 522q0 272 109.5 404.5t261.5 132.5q156 0 244.5 -125t88.5 -451h-577q0 -193 79 -290t216 -97q53 0 117.5 23.5t107.5 62.5l6 -137q-47 -25 -104.5 -42t-138.5 -17q-262 0 -336 175t-74 361zM211 594h451q0 190 -63.5 272t-149.5 82q-111 0 -174.5 -116.5 t-63.5 -237.5z" />
<glyph unicode="f" horiz-adv-x="530" d="M31 934v110h162v224q0 137 54 215t202 78q20 0 38.5 -2.5t51.5 -8.5v-118q-18 8 -42 13t-53 5q-72 0 -102.5 -44t-30.5 -116v-246h185v-110h-185v-934h-118v934h-162z" />
<glyph unicode="g" horiz-adv-x="948" d="M84 483q0 211 65.5 393.5t286.5 182.5q96 0 161 -41t114 -127l4 153h110q0 -43 -4 -164.5t-4 -181.5v-673q0 -231 -94 -355.5t-297 -124.5q-92 0 -145.5 13.5t-151.5 44.5l8 133q68 -39 148 -59.5t139 -20.5q168 0 221 106.5t53 237.5v143q-51 -82 -112.5 -119.5 t-155.5 -37.5q-176 0 -261 156.5t-85 340.5zM211 522q0 -199 55.5 -312.5t184.5 -113.5q139 0 197.5 113t58.5 326q0 186 -57.5 299.5t-200.5 113.5q-119 0 -178.5 -110.5t-59.5 -315.5z" />
<glyph unicode="h" horiz-adv-x="948" d="M139 0v1536h119v-645q35 61 95.5 114.5t166.5 53.5q143 0 216 -93.5t73 -265.5v-700h-119v705q0 98 -33.5 170.5t-160.5 72.5q-106 0 -172 -86t-66 -213v-649h-119z" />
<glyph unicode="i" horiz-adv-x="417" d="M137 1276v184h144v-184h-144zM150 0v1044h118v-1044h-118z" />
<glyph unicode="j" horiz-adv-x="417" d="M-18 -324q29 -12 55 -12q55 0 84 22.5t29 116.5v1241h118v-1224q0 -117 -37.5 -196t-171.5 -79q-45 0 -77 13v118zM137 1276v184h144v-184h-144z" />
<glyph unicode="k" horiz-adv-x="872" d="M143 0v1536h119v-911l395 419h152l-442 -462l483 -582h-160l-424 530l-4 -530h-119z" />
<glyph unicode="l" horiz-adv-x="417" d="M150 0v1536h118v-1536h-118z" />
<glyph unicode="m" horiz-adv-x="1404" d="M131 1044h111l8 -153q35 70 94 119t152 49q111 0 161 -48t78 -120q53 86 119 127t141 41q143 0 207 -99.5t64 -240.5v-719h-119v705q0 96 -30 169.5t-140 73.5q-104 0 -159.5 -81t-55.5 -197v-670h-119v727q0 102 -41 161.5t-117 59.5q-100 0 -163.5 -87t-63.5 -212v-649 h-119v721q0 55 -4 185t-4 138z" />
<glyph unicode="n" horiz-adv-x="948" d="M131 1044h111l8 -153q57 88 120.5 128t149.5 40q143 0 216 -93.5t73 -265.5v-700h-119v705q0 98 -33.5 170.5t-160.5 72.5q-106 0 -172 -86t-66 -213v-649h-119v721q0 55 -4 185t-4 138z" />
<glyph unicode="o" horiz-adv-x="950" d="M84 522q0 229 90 383t301 154q209 0 300 -154.5t91 -382.5q0 -229 -90 -382.5t-301 -153.5q-209 0 -300 154.5t-91 381.5zM211 522q0 -147 47 -286.5t217 -139.5t217 137.5t47 288.5q0 147 -47 286.5t-217 139.5t-217 -137t-47 -289z" />
<glyph unicode="p" horiz-adv-x="948" d="M123 1044h110v-153q57 86 123 127t156 41q168 0 260 -140.5t92 -361.5q0 -248 -84 -409.5t-262 -161.5q-186 0 -264 145l-4 -573h-119v1140q0 86 -3 169t-5 177zM242 535q0 -180 44 -309.5t212 -129.5q127 0 183 115t56 311q0 207 -59.5 316.5t-177.5 109.5 q-139 0 -198.5 -115.5t-59.5 -297.5z" />
<glyph unicode="q" horiz-adv-x="948" d="M84 483q0 211 65.5 393.5t286.5 182.5q96 0 161 -41t114 -127l4 153h110q0 -43 -4 -164.5t-4 -181.5v-1140h-119v585q-51 -82 -112.5 -119.5t-155.5 -37.5q-176 0 -261 156.5t-85 340.5zM211 522q0 -199 55.5 -312.5t184.5 -113.5q139 0 197.5 113t58.5 326 q0 186 -57.5 299.5t-200.5 113.5q-119 0 -178.5 -110.5t-59.5 -315.5z" />
<glyph unicode="r" horiz-adv-x="569" d="M131 1044h111l8 -165q55 104 121.5 142t160.5 38v-127q-143 0 -208.5 -65.5t-65.5 -209.5v-657h-119v721q0 55 -4 185t-4 138z" />
<glyph unicode="s" horiz-adv-x="720" d="M74 35l16 133q35 -25 103.5 -48.5t134.5 -23.5q84 0 138 52.5t54 127.5q0 68 -43 110t-162.5 102.5t-173 119t-53.5 162.5q0 137 95.5 213t211.5 76q49 0 101.5 -9.5t91.5 -21.5l-17 -123q-68 27 -104.5 35t-73.5 8q-84 0 -131 -51t-47 -115q0 -70 29.5 -99.5t174 -108 t186.5 -137t42 -148.5q0 -137 -87 -220t-222 -83q-86 0 -144.5 13t-119.5 36z" />
<glyph unicode="t" horiz-adv-x="569" d="M37 934v110h156v209l118 37v-246h213v-110h-213v-680q0 -78 22.5 -118t92.5 -40q41 0 64 9l34 14v-119q-41 -14 -137 -14q-104 0 -149 67.5t-45 167.5v713h-156z" />
<glyph unicode="u" horiz-adv-x="948" d="M139 315v729h119v-704q0 -98 34 -171t161 -73q106 0 171.5 86t65.5 213v649h119v-720q0 -55 4 -185.5t4 -138.5h-110l-9 154q-20 -53 -88.5 -110.5t-181.5 -57.5q-158 0 -223.5 93t-65.5 236z" />
<glyph unicode="v" horiz-adv-x="798" d="M23 1044h127l247 -909l260 909h119l-305 -1044h-143z" />
<glyph unicode="w" horiz-adv-x="1327" d="M23 1044h127l219 -917l215 917h151l230 -917l221 917h119l-273 -1044h-147l-226 909l-217 -909h-139z" />
<glyph unicode="x" horiz-adv-x="796" d="M23 0l294 563l-270 481h143l207 -389l215 389h136l-283 -489l309 -555h-143l-242 459l-231 -459h-135z" />
<glyph unicode="y" horiz-adv-x="757" d="M20 1044h127l234 -868l237 868h119l-342 -1239q-39 -137 -82 -198.5t-155 -61.5q-37 0 -80 13l6 120q14 -10 37.5 -16t46.5 -6q41 0 65.5 31.5t40.5 89.5l54 198z" />
<glyph unicode="z" horiz-adv-x="757" d="M61 0v119l500 815h-483v110h610v-118l-500 -815h508v-111h-635z" />
<glyph unicode="{" horiz-adv-x="530" d="M70 584v94q72 0 97.5 54t25.5 210v369q0 125 50 181t158 56h93v-94h-62q-129 0 -129 -145v-432q0 -113 -32.5 -169.5t-98.5 -74.5q66 -23 98.5 -78t32.5 -170v-432q0 -145 129 -146h62v-94h-93q-109 0 -158.5 56.5t-49.5 181.5v368q0 156 -25.5 210.5t-97.5 54.5z" />
<glyph unicode="|" horiz-adv-x="454" d="M176 -512v2048h103v-2048h-103z" />
<glyph unicode="}" horiz-adv-x="530" d="M37 -193h61q129 0 129 146v432q0 113 33 169t98 75q-66 23 -98.5 78t-32.5 170v432q0 145 -129 145h-61v94h92q109 0 159 -56t50 -181v-369q0 -156 25.5 -210t97.5 -54v-94q-72 0 -97.5 -54.5t-25.5 -210.5v-368q0 -125 -50 -181.5t-159 -56.5h-92v94z" />
<glyph unicode="~" horiz-adv-x="1228" d="M141 463q41 80 100.5 128t155.5 48q49 0 108.5 -17.5t115 -45t110.5 -52t103 -24.5q53 0 94 39t86 108l73 -74q-64 -88 -116.5 -132t-139.5 -44q-66 0 -108.5 18.5t-100 50.5t-111.5 51.5t-108 19.5q-63 0 -106 -40t-82 -108z" />
<glyph unicode="&#xa1;" horiz-adv-x="720" d="M285 -385l20 1077h111l20 -1077h-151zM285 860v184h151v-184h-151z" />
<glyph unicode="&#xa2;" d="M150 518q0 248 110.5 394.5t321.5 146.5h36l35 229h86l-37 -239q27 -6 43.5 -11.5t30.5 -15.5l-8 -135q-35 29 -86 41l-119 -819l37 -5q43 0 97.5 13.5t78.5 42.5l10 -135q-27 -20 -88 -29.5t-114 -9.5l-41 2l-37 -250h-86l41 268q-137 41 -224 171t-87 341zM276 553 q0 -184 57.5 -284.5t145.5 -137.5l121 809h-16q-135 0 -221.5 -94t-86.5 -293z" />
<glyph unicode="&#xa3;" d="M129 0v119h145v588h-145v110h145q0 338 57.5 437.5t146.5 144.5t184 45q59 0 124.5 -13.5t110.5 -39.5l-20 -129q-35 27 -93.5 45t-115.5 18q-143 0 -205 -101.5t-62 -238.5v-168h328v-110h-328v-588h476v-119h-748z" />
<glyph unicode="&#xa4;" d="M49 340l96 100q-47 55 -71.5 128t-24.5 147q0 76 23.5 145.5t72.5 128.5l-96 101l68 67l98 -98q121 98 276.5 98t276.5 -98l98 98l68 -67l-96 -101q47 -55 71.5 -128t24.5 -146q0 -76 -23.5 -145.5t-72.5 -129.5l96 -100l-68 -68l-98 99q-121 -98 -276.5 -98.5 t-276.5 98.5l-98 -99zM152 714.5q0 -141.5 99 -240.5t240.5 -99t240.5 99t99 240.5t-99 241t-240.5 99.5t-240.5 -99.5t-99 -241z" />
<glyph unicode="&#xa5;" d="M68 1430h135l289 -695l288 695h135l-335 -756h239v-86h-264v-187h264v-86h-264v-315h-127v315h-264v86h264v187h-264v86h239z" />
<glyph unicode="&#xa7;" d="M162 -193l22 136q43 -31 116 -60.5t142 -29.5q92 0 163 51t71 149q0 80 -43 122t-174 114.5t-198.5 141.5t-67.5 185q0 104 51 172t121 123q-59 37 -98.5 88.5t-39.5 149.5q0 111 82 203t246 92q53 0 119.5 -16.5t116.5 -38.5l-21 -127l-14 6q-63 31 -103.5 44t-91.5 13 q-98 0 -152.5 -46t-54.5 -120q0 -72 43 -115t178.5 -130t190.5 -149.5t55 -176.5q0 -80 -35.5 -150.5t-115.5 -134.5q59 -51 96 -106.5t37 -143.5q0 -121 -90 -220t-271 -99q-78 0 -131 16t-149 57zM311 641q0 -72 56.5 -135.5t230.5 -149.5q53 63 78.5 110.5t25.5 111.5 q0 80 -73.5 149.5t-190.5 128.5q-55 -45 -91 -93t-36 -122z" />
<glyph unicode="&#xa8;" horiz-adv-x="380" d="M-23 1257v201h119v-201h-119zM285 1257v201h118v-201h-118z" />
<glyph unicode="&#xa9;" horiz-adv-x="1638" d="M90 715q0 303 213 516t516 213t516 -213t213 -516t-213 -516t-516 -213t-516 213t-213 516zM193 715q0 -266 182 -450.5t444 -184.5q260 0 443.5 185.5t183.5 449.5q0 266 -182.5 450.5t-444.5 184.5q-260 0 -443 -185.5t-183 -449.5zM408 715q0 199 112.5 323.5 t306.5 124.5q141 0 241.5 -77.5t121.5 -217.5h-103q-18 90 -86.5 145.5t-173.5 55.5q-150 0 -233.5 -98.5t-83.5 -255.5q0 -145 87 -250t230 -105q104 0 174 58.5t86 150.5h103q-33 -139 -129 -221t-234 -82q-186 0 -302.5 127t-116.5 322z" />
<glyph unicode="&#xaa;" horiz-adv-x="591" d="M43 981q0 131 102.5 169t237.5 38h49q0 78 -23.5 128t-117.5 50q-47 0 -95.5 -19.5t-74.5 -46.5l-12 89q51 27 94 41t92 14q113 0 168 -51.5t55 -153.5v-289q0 -33 1 -52t7 -87h-84l-6 90q-35 -51 -81 -74.5t-99 -23.5q-84 0 -148.5 48t-64.5 130zM137 993 q0 -41 34 -76.5t91 -35.5q55 0 112.5 34.5t57.5 137.5v65q-156 0 -225.5 -19.5t-69.5 -105.5z" />
<glyph unicode="&#xab;" d="M176 541l236 413h110l-219 -413l219 -430h-110zM461 541l235 413h111l-219 -413l219 -430h-111z" />
<glyph unicode="&#xac;" horiz-adv-x="1228" d="M96 666v102h1037v-547h-103v445h-934z" />
<glyph unicode="&#xad;" horiz-adv-x="606" d="M94 512v119h418v-119h-418z" />
<glyph unicode="&#xae;" horiz-adv-x="1638" d="M90 715q0 303 213 516t516 213t516 -213t213 -516t-213 -516t-516 -213t-516 213t-213 516zM193 715q0 -266 182 -450.5t444 -184.5q260 0 443.5 185.5t183.5 449.5q0 266 -182.5 450.5t-444.5 184.5q-260 0 -443 -185.5t-183 -449.5zM535 297v836h321q137 0 203.5 -59.5 t66.5 -172.5q0 -104 -58 -161.5t-150 -71.5l245 -371h-110l-246 371h-178v-371h-94zM629 754h207q94 0 145 32.5t51 114.5q0 78 -55 112t-141 34h-207v-293z" />
<glyph unicode="&#xaf;" horiz-adv-x="491" d="M-244 123v94h488v-94h-488z" />
<glyph unicode="&#xb0;" horiz-adv-x="819" d="M113 1147q0 123 87 210t209.5 87t210 -87t87.5 -210t-87.5 -210t-210 -87t-209.5 87t-87 210zM207 1147q0 -84 59.5 -143.5t143.5 -59.5t143 59.5t59 143.5t-59 143.5t-143 59.5t-143.5 -59.5t-59.5 -143.5z" />
<glyph unicode="&#xb1;" horiz-adv-x="1228" d="M96 0v102h1037v-102h-1037zM96 561v103h467v372h103v-372h467v-103h-467v-373h-103v373h-467z" />
<glyph unicode="&#xb2;" d="M137 0v125l109 135q143 176 223 284.5t151.5 253t71.5 271.5q0 117 -54 186.5t-169 69.5q-68 0 -142.5 -32.5t-129.5 -80.5l-19 142q55 37 133 63.5t168 26.5q174 0 261 -111.5t87 -263.5q0 -176 -106.5 -357.5t-255.5 -365.5l-184 -227h565v-119h-709z" />
<glyph unicode="&#xb3;" d="M100 43l11 139q37 -25 117.5 -51.5t148.5 -26.5q135 0 225 75t90 233q0 131 -89 200.5t-226 69.5h-119v119q244 0 334 71.5t90 196.5q0 53 -38 154.5t-247 101.5q-57 0 -112.5 -17.5t-122.5 -66.5l-10 135q37 27 122.5 47.5t139.5 20.5q209 0 306 -113.5t97 -249.5 q0 -125 -67.5 -205.5t-188.5 -115.5q100 -20 183 -116.5t83 -248.5q0 -203 -119.5 -306t-342.5 -103q-100 0 -155 14t-110 43z" />
<glyph unicode="&#xb4;" horiz-adv-x="380" d="M96 1200l156 291h143l-196 -291h-103z" />
<glyph unicode="&#xb5;" horiz-adv-x="948" d="M139 -442v1486h119v-704q0 -98 34 -171t161 -73q106 0 171.5 86t65.5 213v649h119v-720q0 -55 4 -185.5t4 -138.5h-110l-9 154q-20 -53 -88.5 -110.5t-181.5 -57.5q-133 0 -166 63l-4 -491h-119z" />
<glyph unicode="&#xb6;" d="M61 1042q0 184 116 286t325 102h379v-1682h-103v1587h-205v-1587h-102v920q-174 0 -292 107t-118 267z" />
<glyph unicode="&#xb8;" horiz-adv-x="380" d="M0 -377l20 58q41 -14 70 -21.5t66 -7.5q59 0 94 19.5t35 74.5q0 41 -30 63.5t-71 22.5q-23 0 -38 -5t-56 -22l-27 29l117 166h74l-88 -113l4 -4q25 8 32 9.5t29 1.5q68 0 116 -35t48 -103q0 -84 -65.5 -125t-153.5 -41q-61 0 -102 5t-74 28z" />
<glyph unicode="&#xb9;" d="M246 1167l254 263h127v-1430h-127v1286l-185 -213z" />
<glyph unicode="&#xba;" horiz-adv-x="638" d="M53 1124.5q0 137.5 60.5 228.5t205.5 91q143 0 205 -92t62 -228q0 -137 -60.5 -229t-206 -92t-206 92t-60.5 229.5zM147 1124q0 -82 31 -162.5t141 -80.5q109 0 141 83t32 160q0 80 -31 161t-142 81q-109 0 -140.5 -82t-31.5 -160z" />
<glyph unicode="&#xbb;" d="M176 111l219 413l-219 430h111l235 -430l-235 -413h-111zM461 111l219 413l-219 430h110l236 -430l-236 -413h-110z" />
<glyph unicode="&#xbf;" horiz-adv-x="909" d="M139 -55q0 98 29 169.5t124 208t116.5 200t21.5 171.5h119q0 -190 -45 -272l-122 -178q-60 -88 -84 -154.5t-24 -130.5q0 -106 60.5 -173t169.5 -67q43 0 96 13.5t117 54.5l10 -139q-61 -25 -111.5 -36t-109.5 -11q-188 0 -277.5 98.5t-89.5 245.5zM422 860v184h151v-184 h-151z" />
<glyph unicode="&#xc0;" horiz-adv-x="1138" d="M27 0l475 1430h135l475 -1430h-135l-125 393h-569l-129 -393h-127zM319 512h494l-242 782zM365 1780h143l156 -291h-103z" />
<glyph unicode="&#xc1;" horiz-adv-x="1138" d="M27 0l475 1430h135l475 -1430h-135l-125 393h-569l-129 -393h-127zM319 512h494l-242 782zM475 1489l156 291h143l-196 -291h-103z" />
<glyph unicode="&#xc2;" horiz-adv-x="1138" d="M27 0l475 1430h135l475 -1430h-135l-125 393h-569l-129 -393h-127zM311 1489l199 291h119l198 -291h-118l-140 209l-139 -209h-119zM319 512h494l-242 782z" />
<glyph unicode="&#xc3;" horiz-adv-x="1138" d="M27 0l475 1430h135l475 -1430h-135l-125 393h-569l-129 -393h-127zM295 1528q0 53 36 128t134 75q37 0 70.5 -17.5t69.5 -39t49.5 -28t31.5 -6.5q27 0 49.5 29t22.5 72h86q0 -63 -40 -133t-118 -70q-35 0 -67.5 14.5t-65.5 37t-53.5 30.5t-34.5 8q-37 0 -60.5 -37 t-23.5 -63h-86zM319 512h494l-242 782z" />
<glyph unicode="&#xc4;" horiz-adv-x="1138" d="M27 0l475 1430h135l475 -1430h-135l-125 393h-569l-129 -393h-127zM319 512h494l-242 782zM356 1546v201h119v-201h-119zM664 1546v201h118v-201h-118z" />
<glyph unicode="&#xc5;" horiz-adv-x="1138" d="M27 0l475 1430h135l475 -1430h-135l-125 393h-569l-129 -393h-127zM319 512h494l-242 782zM371 1671q0 84 57 141.5t141 57.5t141.5 -57.5t57.5 -141.5t-57.5 -141t-141.5 -57t-141 57t-57 141zM440 1671q0 -55 37 -92t92.5 -37t92 37t36.5 92t-36.5 92t-92 37t-92.5 -37 t-37 -92z" />
<glyph unicode="&#xc6;" horiz-adv-x="1554" d="M27 0l731 1430h657v-119h-454v-508h432v-119h-432v-565h477v-119h-604v393h-463l-201 -393h-143zM428 512h406v815z" />
<glyph unicode="&#xc7;" horiz-adv-x="1099" d="M117 723q0 305 152.5 513t461.5 208q63 0 126 -11.5t114 -35.5l-6 -144q-29 25 -101.5 48.5t-142.5 23.5q-84 0 -188.5 -42t-192.5 -176t-88 -388q0 -330 149.5 -472.5t317.5 -142.5q78 0 120 13.5t122 50.5l6 -137q-57 -20 -125 -32.5t-119 -12.5h-21l-77 -99l4 -4 q25 8 32 9.5t29 1.5q68 0 116 -35t48 -103q0 -84 -65.5 -125t-153.5 -41q-61 0 -102 5.5t-74 27.5l20 58q41 -14 70 -21.5t65 -7.5q59 0 94 19.5t35 74.5q0 41 -29.5 63.5t-70.5 22.5q-23 0 -38 -5t-56 -22l-27 29l111 158q-256 33 -386 238.5t-130 492.5z" />
<glyph unicode="&#xc8;" horiz-adv-x="909" d="M164 0v1430h606v-119h-479v-508h457v-119h-457v-565h502v-119h-629zM291 1780h143l156 -291h-103z" />
<glyph unicode="&#xc9;" horiz-adv-x="909" d="M164 0v1430h606v-119h-479v-508h457v-119h-457v-565h502v-119h-629zM401 1489l156 291h143l-196 -291h-103z" />
<glyph unicode="&#xca;" horiz-adv-x="909" d="M164 0v1430h606v-119h-479v-508h457v-119h-457v-565h502v-119h-629zM238 1489l198 291h119l199 -291h-119l-139 209l-140 -209h-118z" />
<glyph unicode="&#xcb;" horiz-adv-x="909" d="M164 0v1430h606v-119h-479v-508h457v-119h-457v-565h502v-119h-629zM283 1546v201h118v-201h-118zM590 1546v201h119v-201h-119z" />
<glyph unicode="&#xcc;" horiz-adv-x="454" d="M23 1780h143l156 -291h-103zM164 0v1430h127v-1430h-127z" />
<glyph unicode="&#xcd;" horiz-adv-x="454" d="M133 1489l156 291h143l-196 -291h-103zM164 0v1430h127v-1430h-127z" />
<glyph unicode="&#xce;" horiz-adv-x="454" d="M-31 1489l199 291h119l198 -291h-118l-140 209l-139 -209h-119zM164 0v1430h127v-1430h-127z" />
<glyph unicode="&#xcf;" horiz-adv-x="454" d="M14 1546v201h119v-201h-119zM164 0v1430h127v-1430h-127zM322 1546v201h118v-201h-118z" />
<glyph unicode="&#xd1;" horiz-adv-x="1214" d="M164 0v1430h164l600 -1270l4 1270h119v-1430h-164l-600 1262l-4 -1262h-119zM334 1528q0 53 36 128t134 75q37 0 70.5 -17.5t69.5 -39t49.5 -28t31.5 -6.5q27 0 49.5 29t22.5 72h86q0 -63 -40 -133t-118 -70q-35 0 -67.5 14.5t-65.5 37t-53.5 30.5t-34.5 8 q-37 0 -60.5 -37t-23.5 -63h-86z" />
<glyph unicode="&#xd2;" horiz-adv-x="1216" d="M104 715q0 137 27 293.5t138.5 296t338.5 139.5q252 0 378 -192.5t126 -536.5q0 -137 -26.5 -294t-138 -296t-339.5 -139q-252 0 -378 192.5t-126 536.5zM240 715q0 -293 91 -452t277 -159q184 0 276.5 159t92.5 452t-91 451.5t-278 158.5q-184 0 -276 -158.5t-92 -451.5 zM403 1780h144l155 -291h-102z" />
<glyph unicode="&#xd3;" horiz-adv-x="1216" d="M104 715q0 137 27 293.5t138.5 296t338.5 139.5q252 0 378 -192.5t126 -536.5q0 -137 -26.5 -294t-138 -296t-339.5 -139q-252 0 -378 192.5t-126 536.5zM240 715q0 -293 91 -452t277 -159q184 0 276.5 159t92.5 452t-91 451.5t-278 158.5q-184 0 -276 -158.5t-92 -451.5 zM514 1489l156 291h143l-197 -291h-102z" />
<glyph unicode="&#xd4;" horiz-adv-x="1216" d="M104 715q0 137 27 293.5t138.5 296t338.5 139.5q252 0 378 -192.5t126 -536.5q0 -137 -26.5 -294t-138 -296t-339.5 -139q-252 0 -378 192.5t-126 536.5zM240 715q0 -293 91 -452t277 -159q184 0 276.5 159t92.5 452t-91 451.5t-278 158.5q-184 0 -276 -158.5t-92 -451.5 zM350 1489l199 291h119l198 -291h-118l-140 209l-139 -209h-119z" />
<glyph unicode="&#xd5;" horiz-adv-x="1216" d="M104 715q0 137 27 293.5t138.5 296t338.5 139.5q252 0 378 -192.5t126 -536.5q0 -137 -26.5 -294t-138 -296t-339.5 -139q-252 0 -378 192.5t-126 536.5zM240 715q0 -293 91 -452t277 -159q184 0 276.5 159t92.5 452t-91 451.5t-278 158.5q-184 0 -276 -158.5t-92 -451.5 zM334 1528q0 53 36 128t134 75q37 0 70.5 -17.5t69.5 -39t49.5 -28t31.5 -6.5q27 0 49.5 29t22.5 72h86q0 -63 -40 -133t-118 -70q-35 0 -67.5 14.5t-65.5 37t-53.5 30.5t-34.5 8q-37 0 -60.5 -37t-23.5 -63h-86z" />
<glyph unicode="&#xd6;" horiz-adv-x="1216" d="M104 715q0 137 27 293.5t138.5 296t338.5 139.5q252 0 378 -192.5t126 -536.5q0 -137 -26.5 -294t-138 -296t-339.5 -139q-252 0 -378 192.5t-126 536.5zM240 715q0 -293 91 -452t277 -159q184 0 276.5 159t92.5 452t-91 451.5t-278 158.5q-184 0 -276 -158.5t-92 -451.5 zM395 1546v201h119v-201h-119zM702 1546v201h119v-201h-119z" />
<glyph unicode="&#xd8;" horiz-adv-x="1216" d="M18 33l172 217q-41 84 -63.5 203.5t-22.5 261.5q0 137 27 293.5t138.5 296t338.5 139.5q131 0 223.5 -50.5t151.5 -138.5l158 201l57 -49l-174 -221q43 -86 65.5 -207t22.5 -264q0 -137 -26.5 -294t-138 -296t-339.5 -139q-131 0 -224 51t-155 143l-153 -194zM240 715 q0 -94 7 -171t38 -173l610 774q-43 84 -112.5 132t-174.5 48q-184 0 -276 -158.5t-92 -451.5zM317 291q45 -88 114 -137.5t177 -49.5q184 0 276.5 159t92.5 452q0 100 -7 177t-40 175z" />
<glyph unicode="&#xd9;" horiz-adv-x="1175" d="M164 526v904h127v-902q0 -197 60.5 -310.5t236.5 -113.5q178 0 237.5 119t59.5 305v902h127v-904q0 -244 -96.5 -392t-327.5 -148q-233 0 -328.5 142t-95.5 398zM383 1780h143l156 -291h-102z" />
<glyph unicode="&#xda;" horiz-adv-x="1175" d="M164 526v904h127v-902q0 -197 60.5 -310.5t236.5 -113.5q178 0 237.5 119t59.5 305v902h127v-904q0 -244 -96.5 -392t-327.5 -148q-233 0 -328.5 142t-95.5 398zM494 1489l155 291h144l-197 -291h-102z" />
<glyph unicode="&#xdb;" horiz-adv-x="1175" d="M164 526v904h127v-902q0 -197 60.5 -310.5t236.5 -113.5q178 0 237.5 119t59.5 305v902h127v-904q0 -244 -96.5 -392t-327.5 -148q-233 0 -328.5 142t-95.5 398zM330 1489l198 291h119l199 -291h-119l-139 209l-139 -209h-119z" />
<glyph unicode="&#xdc;" horiz-adv-x="1175" d="M164 526v904h127v-902q0 -197 60.5 -310.5t236.5 -113.5q178 0 237.5 119t59.5 305v902h127v-904q0 -244 -96.5 -392t-327.5 -148q-233 0 -328.5 142t-95.5 398zM375 1546v201h119v-201h-119zM682 1546v201h119v-201h-119z" />
<glyph unicode="&#xdd;" horiz-adv-x="1024" d="M88 1430h135l291 -693l287 693h135l-361 -809v-621h-126v621zM461 1567l155 291h144l-197 -291h-102z" />
<glyph unicode="&#xdf;" horiz-adv-x="948" d="M123 0v1098q0 252 110.5 357.5t249.5 105.5q135 0 227.5 -100.5t92.5 -276.5q0 -137 -64.5 -232.5t-185.5 -122.5q164 -23 237.5 -132t73.5 -277q0 -203 -96 -318.5t-266 -115.5q-25 0 -68 4t-67 10l14 127q18 -10 47 -16.5t53 -6.5q106 0 181 84t75 269q0 156 -90 227.5 t-246 71.5v118q135 0 205 81t70 219q0 94 -36 181t-167 87q-139 0 -185 -112.5t-46 -272.5v-1057h-119z" />
<glyph unicode="&#xe0;" horiz-adv-x="909" d="M84 289q0 217 152.5 278.5t351.5 61.5h76q0 145 -37 232t-181 87q-90 0 -153.5 -34.5t-108.5 -73.5l-18 127q88 47 149.5 69.5t137.5 22.5q162 0 241.5 -88t79.5 -258v-480q0 -39 6 -116.5t6 -116.5h-106l-8 150q-57 -88 -126 -126t-171 -38q-123 0 -207 88t-84 215z M211 289q0 -74 51 -133.5t141 -59.5q86 0 173.5 61.5t87.5 245.5v123q-238 0 -345.5 -38.5t-107.5 -198.5zM250 1491h143l156 -291h-103z" />
<glyph unicode="&#xe1;" horiz-adv-x="909" d="M84 289q0 217 152.5 278.5t351.5 61.5h76q0 145 -37 232t-181 87q-90 0 -153.5 -34.5t-108.5 -73.5l-18 127q88 47 149.5 69.5t137.5 22.5q162 0 241.5 -88t79.5 -258v-480q0 -39 6 -116.5t6 -116.5h-106l-8 150q-57 -88 -126 -126t-171 -38q-123 0 -207 88t-84 215z M211 289q0 -74 51 -133.5t141 -59.5q86 0 173.5 61.5t87.5 245.5v123q-238 0 -345.5 -38.5t-107.5 -198.5zM360 1200l156 291h143l-196 -291h-103z" />
<glyph unicode="&#xe2;" horiz-adv-x="909" d="M84 289q0 217 152.5 278.5t351.5 61.5h76q0 145 -37 232t-181 87q-90 0 -153.5 -34.5t-108.5 -73.5l-18 127q88 47 149.5 69.5t137.5 22.5q162 0 241.5 -88t79.5 -258v-480q0 -39 6 -116.5t6 -116.5h-106l-8 150q-57 -88 -126 -126t-171 -38q-123 0 -207 88t-84 215z M197 1200l198 291h119l199 -291h-119l-139 209l-140 -209h-118zM211 289q0 -74 51 -133.5t141 -59.5q86 0 173.5 61.5t87.5 245.5v123q-238 0 -345.5 -38.5t-107.5 -198.5z" />
<glyph unicode="&#xe3;" horiz-adv-x="909" d="M84 289q0 217 152.5 278.5t351.5 61.5h76q0 145 -37 232t-181 87q-90 0 -153.5 -34.5t-108.5 -73.5l-18 127q88 47 149.5 69.5t137.5 22.5q162 0 241.5 -88t79.5 -258v-480q0 -39 6 -116.5t6 -116.5h-106l-8 150q-57 -88 -126 -126t-171 -38q-123 0 -207 88t-84 215z M180 1239q0 53 36 128t134 75q37 0 71 -17.5t69.5 -39t49 -27.5t31.5 -6q27 0 49.5 28.5t22.5 71.5h86q0 -63 -40 -133t-118 -70q-35 0 -67.5 14.5t-65 37t-53 30.5t-35.5 8q-37 0 -60.5 -36.5t-23.5 -63.5h-86zM211 289q0 -74 51 -133.5t141 -59.5q86 0 173.5 61.5 t87.5 245.5v123q-238 0 -345.5 -38.5t-107.5 -198.5z" />
<glyph unicode="&#xe4;" horiz-adv-x="909" d="M84 289q0 217 152.5 278.5t351.5 61.5h76q0 145 -37 232t-181 87q-90 0 -153.5 -34.5t-108.5 -73.5l-18 127q88 47 149.5 69.5t137.5 22.5q162 0 241.5 -88t79.5 -258v-480q0 -39 6 -116.5t6 -116.5h-106l-8 150q-57 -88 -126 -126t-171 -38q-123 0 -207 88t-84 215z M211 289q0 -74 51 -133.5t141 -59.5q86 0 173.5 61.5t87.5 245.5v123q-238 0 -345.5 -38.5t-107.5 -198.5zM242 1257v201h118v-201h-118zM549 1257v201h119v-201h-119z" />
<glyph unicode="&#xe5;" horiz-adv-x="909" d="M84 289q0 217 152.5 278.5t351.5 61.5h76q0 145 -37 232t-181 87q-90 0 -153.5 -34.5t-108.5 -73.5l-18 127q88 47 149.5 69.5t137.5 22.5q162 0 241.5 -88t79.5 -258v-480q0 -39 6 -116.5t6 -116.5h-106l-8 150q-57 -88 -126 -126t-171 -38q-123 0 -207 88t-84 215z M211 289q0 -74 51 -133.5t141 -59.5q86 0 173.5 61.5t87.5 245.5v123q-238 0 -345.5 -38.5t-107.5 -198.5zM256 1362q0 84 57.5 141.5t141.5 57.5t141 -57.5t57 -141.5t-57 -141.5t-141 -57.5t-141.5 57.5t-57.5 141.5zM326 1362q0 -55 36.5 -92t92 -37t92.5 37t37 92 t-37 92t-92.5 37t-92 -37t-36.5 -92z" />
<glyph unicode="&#xe6;" horiz-adv-x="1402" d="M76 287q0 182 119.5 262t310.5 80h115q0 150 -37 234.5t-164 84.5q-68 0 -115 -22.5t-112 -69.5l-11 117q27 27 108 56.5t144 29.5q98 0 169 -51.5t95 -137.5q47 94 115 141.5t164 47.5q215 0 282.5 -171t67.5 -362h-579v-45q0 -123 57 -254t221 -131q57 0 98 16.5 t125 59.5l8 -135q-43 -20 -115.5 -35.5t-125.5 -15.5q-131 0 -216 65.5t-120 169.5q-47 -119 -127 -177t-197 -58q-133 0 -206.5 86t-73.5 215zM203 287q0 -84 49 -137.5t127 -53.5q121 0 181.5 101.5t60.5 232.5v96q-186 0 -302 -41.5t-116 -197.5zM748 629h452 q0 98 -40 208.5t-179 110.5q-113 0 -173 -95t-60 -224z" />
<glyph unicode="&#xe7;" horiz-adv-x="757" d="M84 518q0 248 110.5 394.5t321.5 146.5q59 0 104.5 -9.5t90.5 -27.5l-6 -135q-33 27 -85.5 40t-103.5 13q-133 0 -219 -95t-86 -292q0 -252 102.5 -350.5t221.5 -98.5q43 0 97 13.5t79 42.5l10 -135q-88 -39 -203 -39h-16l-78 -99l4 -4q25 8 32 9.5t29 1.5q68 0 116 -35 t48 -103q0 -84 -65.5 -125t-153.5 -41q-61 0 -102 5.5t-74 27.5l21 58q41 -14 69.5 -21.5t65.5 -7.5q59 0 94 19.5t35 74.5q0 41 -30 63.5t-71 22.5q-23 0 -38 -5t-56 -22l-26 29l114 160q-154 31 -253 164t-99 360z" />
<glyph unicode="&#xe8;" horiz-adv-x="872" d="M84 522q0 272 109.5 404.5t261.5 132.5q156 0 244.5 -125t88.5 -451h-577q0 -193 79 -290t216 -97q53 0 117.5 23.5t107.5 62.5l6 -137q-47 -25 -104.5 -42t-138.5 -17q-262 0 -336 175t-74 361zM211 594h451q0 190 -63.5 272t-149.5 82q-111 0 -174.5 -116.5 t-63.5 -237.5zM231 1491h144l155 -291h-102z" />
<glyph unicode="&#xe9;" horiz-adv-x="872" d="M84 522q0 272 109.5 404.5t261.5 132.5q156 0 244.5 -125t88.5 -451h-577q0 -193 79 -290t216 -97q53 0 117.5 23.5t107.5 62.5l6 -137q-47 -25 -104.5 -42t-138.5 -17q-262 0 -336 175t-74 361zM211 594h451q0 190 -63.5 272t-149.5 82q-111 0 -174.5 -116.5 t-63.5 -237.5zM342 1200l156 291h143l-197 -291h-102z" />
<glyph unicode="&#xea;" horiz-adv-x="872" d="M84 522q0 272 109.5 404.5t261.5 132.5q156 0 244.5 -125t88.5 -451h-577q0 -193 79 -290t216 -97q53 0 117.5 23.5t107.5 62.5l6 -137q-47 -25 -104.5 -42t-138.5 -17q-262 0 -336 175t-74 361zM178 1200l199 291h119l198 -291h-119l-139 209l-139 -209h-119zM211 594 h451q0 190 -63.5 272t-149.5 82q-111 0 -174.5 -116.5t-63.5 -237.5z" />
<glyph unicode="&#xeb;" horiz-adv-x="872" d="M84 522q0 272 109.5 404.5t261.5 132.5q156 0 244.5 -125t88.5 -451h-577q0 -193 79 -290t216 -97q53 0 117.5 23.5t107.5 62.5l6 -137q-47 -25 -104.5 -42t-138.5 -17q-262 0 -336 175t-74 361zM211 594h451q0 190 -63.5 272t-149.5 82q-111 0 -174.5 -116.5 t-63.5 -237.5zM223 1257v201h119v-201h-119zM530 1257v201h119v-201h-119z" />
<glyph unicode="&#xec;" horiz-adv-x="417" d="M4 1491h143l156 -291h-102zM150 0v1044h118v-1044h-118z" />
<glyph unicode="&#xed;" horiz-adv-x="417" d="M115 1200l155 291h144l-197 -291h-102zM150 0v1044h118v-1044h-118z" />
<glyph unicode="&#xee;" horiz-adv-x="417" d="M-49 1200l199 291h118l199 -291h-119l-139 209l-139 -209h-119zM150 0v1044h118v-1044h-118z" />
<glyph unicode="&#xef;" horiz-adv-x="417" d="M-4 1257v201h119v-201h-119zM150 0v1044h118v-1044h-118zM303 1257v201h119v-201h-119z" />
<glyph unicode="&#xf1;" horiz-adv-x="948" d="M131 1044h111l8 -153q57 88 120.5 128t149.5 40q143 0 216 -93.5t73 -265.5v-700h-119v705q0 98 -33.5 170.5t-160.5 72.5q-106 0 -172 -86t-66 -213v-649h-119v721q0 55 -4 185t-4 138zM201 1239q0 53 35.5 128t134.5 75q37 0 70.5 -17.5t69.5 -39t49 -27.5t32 -6 q27 0 49.5 28.5t22.5 71.5h86q0 -63 -40 -133t-118 -70q-35 0 -67.5 14.5t-65.5 37t-53.5 30.5t-34.5 8q-37 0 -60.5 -36.5t-23.5 -63.5h-86z" />
<glyph unicode="&#xf2;" horiz-adv-x="950" d="M84 522q0 229 90 383t301 154q209 0 300 -154.5t91 -382.5q0 -229 -90 -382.5t-301 -153.5q-209 0 -300 154.5t-91 381.5zM211 522q0 -147 47 -286.5t217 -139.5t217 137.5t47 288.5q0 147 -47 286.5t-217 139.5t-217 -137t-47 -289zM270 1491h144l155 -291h-102z" />
<glyph unicode="&#xf3;" horiz-adv-x="950" d="M84 522q0 229 90 383t301 154q209 0 300 -154.5t91 -382.5q0 -229 -90 -382.5t-301 -153.5q-209 0 -300 154.5t-91 381.5zM211 522q0 -147 47 -286.5t217 -139.5t217 137.5t47 288.5q0 147 -47 286.5t-217 139.5t-217 -137t-47 -289zM381 1200l156 291h143l-197 -291 h-102z" />
<glyph unicode="&#xf4;" horiz-adv-x="950" d="M84 522q0 229 90 383t301 154q209 0 300 -154.5t91 -382.5q0 -229 -90 -382.5t-301 -153.5q-209 0 -300 154.5t-91 381.5zM211 522q0 -147 47 -286.5t217 -139.5t217 137.5t47 288.5q0 147 -47 286.5t-217 139.5t-217 -137t-47 -289zM217 1200l199 291h119l198 -291h-119 l-139 209l-139 -209h-119z" />
<glyph unicode="&#xf5;" horiz-adv-x="950" d="M84 522q0 229 90 383t301 154q209 0 300 -154.5t91 -382.5q0 -229 -90 -382.5t-301 -153.5q-209 0 -300 154.5t-91 381.5zM201 1239q0 53 35.5 128t134.5 75q37 0 70.5 -17.5t69.5 -39t49 -27.5t32 -6q27 0 49.5 28.5t22.5 71.5h86q0 -63 -40 -133t-118 -70 q-35 0 -67.5 14.5t-65.5 37t-53.5 30.5t-34.5 8q-37 0 -60.5 -36.5t-23.5 -63.5h-86zM211 522q0 -147 47 -286.5t217 -139.5t217 137.5t47 288.5q0 147 -47 286.5t-217 139.5t-217 -137t-47 -289z" />
<glyph unicode="&#xf6;" horiz-adv-x="950" d="M84 522q0 229 90 383t301 154q209 0 300 -154.5t91 -382.5q0 -229 -90 -382.5t-301 -153.5q-209 0 -300 154.5t-91 381.5zM211 522q0 -147 47 -286.5t217 -139.5t217 137.5t47 288.5q0 147 -47 286.5t-217 139.5t-217 -137t-47 -289zM262 1257v201h119v-201h-119z M569 1257v201h119v-201h-119z" />
<glyph unicode="&#xf7;" horiz-adv-x="1228" d="M96 467v102h1037v-102h-1037zM502 98q0 47 32.5 80t80 33t80 -33t32.5 -80t-32.5 -79.5t-80 -32.5t-80 32.5t-32.5 79.5zM502 938q0 47 32.5 80t80 33t80 -33t32.5 -80t-32.5 -80t-80 -33t-80 33t-32.5 80z" />
<glyph unicode="&#xf8;" horiz-adv-x="948" d="M33 29l121 153q-35 68 -52.5 158t-17.5 182q0 229 90 383t301 154q90 0 158.5 -32t116.5 -89l94 121l53 -45l-106 -135q39 -68 57 -164.5t18 -192.5q0 -229 -90 -382.5t-301 -153.5q-96 0 -164.5 32.5t-117.5 100.5l-107 -133zM211 522q0 -70 4 -116t25 -113l432 547 q-31 51 -78 79.5t-119 28.5q-170 0 -217 -137t-47 -289zM270 219q31 -57 80 -90t125 -33q170 0 217 137.5t47 288.5q0 57 -6 121t-28 127z" />
<glyph unicode="&#xf9;" horiz-adv-x="948" d="M139 315v729h119v-704q0 -98 34 -171t161 -73q106 0 171.5 86t65.5 213v649h119v-720q0 -55 4 -185.5t4 -138.5h-110l-9 154q-20 -53 -88.5 -110.5t-181.5 -57.5q-158 0 -223.5 93t-65.5 236zM270 1491h144l155 -291h-102z" />
<glyph unicode="&#xfa;" horiz-adv-x="948" d="M139 315v729h119v-704q0 -98 34 -171t161 -73q106 0 171.5 86t65.5 213v649h119v-720q0 -55 4 -185.5t4 -138.5h-110l-9 154q-20 -53 -88.5 -110.5t-181.5 -57.5q-158 0 -223.5 93t-65.5 236zM381 1200l156 291h143l-197 -291h-102z" />
<glyph unicode="&#xfb;" horiz-adv-x="948" d="M139 315v729h119v-704q0 -98 34 -171t161 -73q106 0 171.5 86t65.5 213v649h119v-720q0 -55 4 -185.5t4 -138.5h-110l-9 154q-20 -53 -88.5 -110.5t-181.5 -57.5q-158 0 -223.5 93t-65.5 236zM217 1200l199 291h119l198 -291h-119l-139 209l-139 -209h-119z" />
<glyph unicode="&#xfc;" horiz-adv-x="948" d="M139 315v729h119v-704q0 -98 34 -171t161 -73q106 0 171.5 86t65.5 213v649h119v-720q0 -55 4 -185.5t4 -138.5h-110l-9 154q-20 -53 -88.5 -110.5t-181.5 -57.5q-158 0 -223.5 93t-65.5 236zM262 1257v201h119v-201h-119zM569 1257v201h119v-201h-119z" />
<glyph unicode="&#xfd;" horiz-adv-x="757" d="M20 1044h127l234 -868l237 868h119l-342 -1239q-39 -137 -82 -198.5t-155 -61.5q-37 0 -80 13l6 120q14 -10 37.5 -16t46.5 -6q41 0 65.5 31.5t40.5 89.5l54 198zM328 1182l155 291h144l-197 -291h-102z" />
<glyph unicode="&#xff;" horiz-adv-x="757" d="M20 1044h127l234 -868l237 868h119l-342 -1239q-39 -137 -82 -198.5t-155 -61.5q-37 0 -80 13l6 120q14 -10 37.5 -16t46.5 -6q41 0 65.5 31.5t40.5 89.5l54 198zM166 1257v201h119v-201h-119zM473 1257v201h119v-201h-119z" />
<glyph unicode="&#x152;" horiz-adv-x="1517" d="M104 715q0 328 127 528.5t416 200.5l96 -6q25 -4 47.5 -6t49.5 -2h538v-119h-446v-508h424v-119h-424v-565h469v-119h-561l-97 -6q-25 -2 -46 -5t-50 -3q-289 0 -416 199.5t-127 529.5zM231 715q0 -291 100.5 -451t309.5 -160q47 0 97 4.5t67 10.5v1192q-6 2 -63.5 8 t-100.5 6q-209 0 -309.5 -159.5t-100.5 -450.5z" />
<glyph unicode="&#x153;" horiz-adv-x="1517" d="M84 522q0 229 90 383t301 154q127 0 209 -58.5t125 -160.5q49 111 131 165t178 54q156 0 245 -125t89 -451h-586q0 -190 83 -288.5t220 -98.5q53 0 118 23.5t108 62.5l6 -137q-47 -25 -104.5 -42t-139.5 -17q-135 0 -221 59t-131 156q-43 -102 -123 -158.5t-207 -56.5 q-209 0 -300 154.5t-91 381.5zM211 522q0 -147 47 -286.5t217 -139.5t217 137.5t47 288.5q0 147 -47 286.5t-217 139.5t-217 -137t-47 -289zM866 594h459q0 190 -63.5 272t-149.5 82q-117 0 -181.5 -115.5t-64.5 -238.5z" />
<glyph unicode="&#x178;" horiz-adv-x="1024" d="M88 1430h135l291 -693l287 693h135l-361 -809v-621h-126v621zM299 1546v201h119v-201h-119zM606 1546v201h119v-201h-119z" />
<glyph unicode="&#x2c6;" horiz-adv-x="1228" d="M90 502l473 928h103l473 -928h-119l-406 801l-405 -801h-119z" />
<glyph unicode="&#x2dc;" horiz-adv-x="491" d="M-274 123q0 53 35.5 128t134.5 75q37 0 70.5 -17.5t69.5 -39t49 -27.5t32 -6q27 0 49 28.5t22 71.5h86q0 -63 -39.5 -133t-117.5 -70q-35 0 -68 14.5t-65.5 37t-53 30.5t-34.5 8q-37 0 -60.5 -36.5t-23.5 -63.5h-86z" />
<glyph unicode="&#x2013;" horiz-adv-x="1024" d="M0 516v111h1024v-111h-1024z" />
<glyph unicode="&#x2014;" horiz-adv-x="2048" d="M0 516v111h2048v-111h-2048z" />
<glyph unicode="&#x2018;" horiz-adv-x="491" d="M121 1081l131 455h119l-99 -455h-151z" />
<glyph unicode="&#x2019;" horiz-adv-x="491" d="M121 1081l98 455h152l-131 -455h-119z" />
<glyph unicode="&#x201a;" horiz-adv-x="491" d="M121 -270l98 454h152l-131 -454h-119z" />
<glyph unicode="&#x201c;" d="M219 1081l131 455h119l-98 -455h-152zM514 1081l131 455h119l-98 -455h-152z" />
<glyph unicode="&#x201d;" d="M219 1081l98 455h152l-131 -455h-119zM514 1081l98 455h152l-131 -455h-119z" />
<glyph unicode="&#x201e;" d="M219 -270l98 454h152l-131 -454h-119zM514 -270l98 454h152l-131 -454h-119z" />
<glyph unicode="&#x2022;" horiz-adv-x="1024" d="M154 714.5q0 149.5 104 254t254 104.5t254 -104.5t104 -254t-104 -254t-254 -104.5t-254 104.5t-104 254z" />
<glyph unicode="&#x2026;" horiz-adv-x="2048" d="M262 0v201h160v-201h-160zM944 0v201h160v-201h-160zM1626 0v201h160v-201h-160z" />
<glyph unicode="&#x2039;" horiz-adv-x="530" d="M92 541l236 413h110l-219 -413l219 -430h-110z" />
<glyph unicode="&#x203a;" horiz-adv-x="530" d="M92 111l219 413l-219 430h111l235 -430l-235 -413h-111z" />
<glyph unicode="&#x2122;" horiz-adv-x="2048" d="M106 1335v95h656v-95h-277v-757h-102v757h-277zM913 578v852h177l270 -685l262 685h176v-852h-102v757l-310 -757h-61l-305 757l-4 -757h-103z" />
<glyph unicode="&#xe000;" horiz-adv-x="1045" d="M0 1045h1045v-1045h-1045v1045z" />
<glyph unicode="&#xfb01;" horiz-adv-x="948" d="M31 934v110h162v224q0 137 54 215t202 78q20 0 38.5 -2.5t51.5 -8.5v-118q-18 8 -42 13t-53 5q-72 0 -102.5 -44t-30.5 -116v-246h185v-110h-185v-934h-118v934h-162zM668 1276v184h143v-184h-143zM680 0v1044h119v-1044h-119z" />
<glyph unicode="&#xfb02;" horiz-adv-x="948" d="M31 934v110h162v224q0 137 54 215t202 78q20 0 38.5 -2.5t51.5 -8.5v-118q-18 8 -42 13t-53 5q-72 0 -102.5 -44t-30.5 -116v-246h185v-110h-185v-934h-118v934h-162zM680 0v1536h119v-1536h-119z" />
<glyph unicode="&#xfb03;" horiz-adv-x="1478" d="M31 934v110h162v224q0 137 54 215t202 78q20 0 38.5 -2.5t51.5 -8.5v-118q-18 8 -42 13t-53 5q-72 0 -102.5 -44t-30.5 -116v-246h185v-110h-185v-934h-118v934h-162zM561 934v110h162v224q0 137 54 215t202 78q20 0 38.5 -2.5t51.5 -8.5v-118q-18 8 -41.5 13t-52.5 5 q-72 0 -102.5 -44t-30.5 -116v-246h184v-110h-184v-934h-119v934h-162zM1198 1276v184h143v-184h-143zM1210 0v1044h119v-1044h-119z" />
<glyph unicode="&#xfb04;" horiz-adv-x="1478" d="M31 934v110h162v224q0 137 54 215t202 78q20 0 38.5 -2.5t51.5 -8.5v-118q-18 8 -42 13t-53 5q-72 0 -102.5 -44t-30.5 -116v-246h185v-110h-185v-934h-118v934h-162zM561 934v110h162v224q0 137 54 215t202 78q20 0 38.5 -2.5t51.5 -8.5v-118q-18 8 -41.5 13t-52.5 5 q-72 0 -102.5 -44t-30.5 -116v-246h184v-110h-184v-934h-119v934h-162zM1210 0v1536h119v-1536h-119z" />
</font>
</defs>
</svg>
